<svg width="48" height="48" viewBox="0 0 48 48" fill="none" xmlns="http://www.w3.org/2000/svg">
<path opacity="0.1" d="M48 24C48 10.7452 37.2548 0 24 0C10.7452 0 0 10.7452 0 24C0 37.2548 10.7452 48 24 48C37.2548 48 48 37.2548 48 24Z" fill="white"/>
<path d="M30.625 19.3086C30.625 19.1172 30.543 18.9531 30.4062 18.8164C30.2695 18.707 30.1055 18.625 29.9414 18.625H19.0586C18.8398 18.625 18.6758 18.707 18.5664 18.8164C18.4297 18.9531 18.375 19.1172 18.375 19.3086V30.1914C18.375 30.3828 18.4297 30.5469 18.5664 30.6836C18.6758 30.8203 18.8398 30.875 19.0586 30.875H24.9102V26.1172H23.3242V24.2852H24.9102V22.918C24.9102 22.1523 25.1289 21.5508 25.5664 21.1133C26.0039 20.7031 26.5781 20.4844 27.2891 20.4844C27.8359 20.4844 28.3281 20.5117 28.7109 20.5391V22.207H27.7266C27.3711 22.207 27.125 22.2891 26.9883 22.4531C26.8789 22.5898 26.8242 22.8086 26.8242 23.1094V24.2852H28.6562L28.4102 26.1172H26.8242V30.875H29.9414C30.1328 30.875 30.2969 30.8203 30.4336 30.6836C30.543 30.5469 30.625 30.3828 30.625 30.1914V19.3086Z" fill="white"/>
</svg>
