<svg width="48" height="48" viewBox="0 0 48 48" fill="none" xmlns="http://www.w3.org/2000/svg">
<path opacity="0.1" d="M48 24C48 10.7452 37.2548 0 24 0C10.7452 0 0 10.7452 0 24C0 37.2548 10.7452 48 24 48C37.2548 48 48 37.2548 48 24Z" fill="white"/>
<path d="M22.758 28.6055C22.758 28.6055 22.73 28.5781 22.703 28.5508C22.676 28.5508 22.648 28.5234 22.594 28.5234C22.484 28.5234 22.457 28.5781 22.457 28.6328C22.457 28.7148 22.484 28.7422 22.594 28.7422C22.703 28.7422 22.758 28.6875 22.758 28.6055ZM21.91 28.4961C21.91 28.4414 21.965 28.4141 22.074 28.4414C22.156 28.4688 22.184 28.4961 22.184 28.5508C22.184 28.6055 22.156 28.6328 22.129 28.6328C22.074 28.6602 22.047 28.6602 22.02 28.6328C21.965 28.6328 21.938 28.6055 21.91 28.5781C21.883 28.5508 21.883 28.5234 21.91 28.4961ZM23.113 28.4414C23.195 28.4414 23.25 28.4688 23.25 28.5234C23.25 28.5781 23.223 28.6328 23.141 28.6602C23.086 28.6602 23.059 28.6602 23.031 28.6602C23.004 28.6602 22.977 28.6055 22.977 28.5508C22.977 28.4961 23.004 28.4688 23.113 28.4414ZM24.918 17.9688C26.148 17.9688 27.297 18.2695 28.363 18.8438C29.402 19.4453 30.25 20.2383 30.852 21.2227C31.453 22.2617 31.781 23.4102 31.781 24.6406C31.781 26.1719 31.344 27.5117 30.496 28.7148C29.648 29.918 28.555 30.7383 27.188 31.1758C27.023 31.2305 26.914 31.2031 26.832 31.1211C26.75 31.0664 26.723 30.957 26.723 30.8477V28.5508C26.723 27.9766 26.559 27.5664 26.258 27.293C26.914 27.2383 27.434 27.1289 27.762 27.0195C28.254 26.8555 28.664 26.582 28.938 26.1992C29.238 25.7344 29.402 25.0781 29.402 24.2578C29.402 23.9297 29.32 23.6289 29.211 23.3555C29.102 23.1914 28.938 22.9453 28.691 22.6719C28.746 22.5078 28.801 22.2891 28.828 22.0156C28.828 21.6328 28.773 21.2227 28.637 20.8125C28.445 20.7578 28.199 20.8125 27.871 20.9219C27.652 21.0312 27.379 21.1406 27.105 21.3047L26.75 21.5508C26.176 21.3867 25.602 21.3047 25 21.3047C24.398 21.3047 23.852 21.3867 23.305 21.5508L22.949 21.3047C22.648 21.1406 22.375 21.0312 22.156 20.9219C21.828 20.8125 21.582 20.7578 21.418 20.8125C21.254 21.2227 21.172 21.6328 21.227 22.0156C21.227 22.2891 21.254 22.4805 21.336 22.6445C21.117 22.918 20.953 23.1914 20.844 23.4102C20.734 23.6289 20.707 23.9297 20.707 24.2578C20.707 25.0781 20.844 25.7344 21.145 26.1719C21.391 26.5547 21.773 26.8555 22.293 27.0195C22.621 27.1289 23.113 27.2383 23.77 27.293C23.523 27.5117 23.387 27.8398 23.332 28.2227C23.004 28.3867 22.703 28.4414 22.43 28.3867C21.938 28.3594 21.582 28.1133 21.336 27.6484C21.227 27.457 21.062 27.293 20.898 27.1562C20.762 27.1016 20.625 27.0195 20.488 26.9648L20.297 26.9375C20.078 26.9375 19.969 26.9922 19.969 27.0469C19.969 27.1016 19.996 27.1836 20.105 27.2383L20.242 27.3477C20.352 27.4297 20.488 27.5391 20.625 27.7031C20.734 27.8398 20.816 27.9766 20.898 28.1406L21.008 28.3594C21.09 28.6328 21.254 28.8516 21.527 28.9883C21.746 29.125 21.992 29.207 22.32 29.2344C22.539 29.2617 22.758 29.2617 23.004 29.207L23.305 29.1797L23.332 30.8477C23.332 30.957 23.277 31.0664 23.195 31.1211C23.113 31.2031 23.004 31.2305 22.867 31.1758C21.473 30.7383 20.352 29.918 19.504 28.7148C18.629 27.5117 18.219 26.1719 18.219 24.6406C18.219 23.4102 18.492 22.2891 19.094 21.25C19.668 20.2383 20.461 19.4453 21.5 18.8438C22.512 18.2695 23.66 17.9688 24.918 17.9688ZM20.871 27.4023C20.898 27.375 20.953 27.375 21.008 27.4297C21.062 27.4844 21.062 27.5391 21.035 27.5664C20.98 27.6211 20.953 27.5938 20.898 27.5391C20.844 27.4844 20.816 27.457 20.871 27.4023ZM20.57 27.1836C20.598 27.1562 20.652 27.1562 20.707 27.1836C20.762 27.2109 20.762 27.2383 20.762 27.293C20.734 27.3477 20.68 27.3477 20.625 27.293C20.57 27.2656 20.543 27.2383 20.57 27.1836ZM21.473 28.1406C21.473 28.1406 21.5 28.1406 21.555 28.1406C21.582 28.1406 21.609 28.168 21.637 28.1953C21.664 28.2227 21.691 28.25 21.691 28.2773C21.691 28.332 21.691 28.3594 21.691 28.3594C21.637 28.4141 21.555 28.4141 21.5 28.332C21.445 28.3047 21.445 28.2773 21.445 28.2227C21.445 28.1953 21.445 28.168 21.473 28.1406ZM21.145 27.7578C21.172 27.7578 21.199 27.7578 21.227 27.7578C21.254 27.7578 21.281 27.7852 21.309 27.8125C21.363 27.8945 21.363 27.9492 21.309 27.9766C21.281 28.0039 21.254 28.0039 21.227 27.9766C21.199 27.9766 21.172 27.9492 21.145 27.9219C21.09 27.8398 21.09 27.7852 21.145 27.7578Z" fill="white"/>
</svg>
