<svg width="48" height="48" viewBox="0 0 48 48" fill="none" xmlns="http://www.w3.org/2000/svg">
<path opacity="0.1" d="M48 24C48 10.7452 37.2548 0 24 0C10.7452 0 0 10.7452 0 24C0 37.2548 10.7452 48 24 48C37.2548 48 48 37.2548 48 24Z" fill="white"/>
<path d="M24.5 21.6055C25.047 21.6055 25.566 21.7695 26.059 22.043C26.551 22.3164 26.934 22.6992 27.207 23.1914C27.48 23.6836 27.645 24.2031 27.645 24.75C27.645 25.3242 27.48 25.8438 27.207 26.3359C26.934 26.8281 26.551 27.2109 26.059 27.4844C25.566 27.7578 25.047 27.8945 24.5 27.8945C23.926 27.8945 23.406 27.7578 22.914 27.4844C22.422 27.2109 22.039 26.8281 21.766 26.3359C21.492 25.8438 21.355 25.3242 21.355 24.75C21.355 24.2031 21.492 23.6836 21.766 23.1914C22.039 22.6992 22.422 22.3164 22.914 22.043C23.406 21.7695 23.926 21.6055 24.5 21.6055ZM24.5 26.8008C25.047 26.8008 25.539 26.6094 25.949 26.1992C26.332 25.8164 26.551 25.3242 26.551 24.75C26.551 24.2031 26.332 23.7109 25.949 23.3008C25.539 22.918 25.047 22.6992 24.5 22.6992C23.926 22.6992 23.434 22.918 23.051 23.3008C22.641 23.7109 22.449 24.2031 22.449 24.75C22.449 25.3242 22.641 25.8164 23.051 26.1992C23.434 26.6094 23.926 26.8008 24.5 26.8008ZM28.52 21.4688C28.52 21.2773 28.438 21.1133 28.301 20.9492C28.137 20.8125 27.973 20.7305 27.781 20.7305C27.562 20.7305 27.398 20.8125 27.262 20.9492C27.098 21.1133 27.043 21.2773 27.043 21.4688C27.043 21.6875 27.098 21.8516 27.262 21.9883C27.398 22.1523 27.562 22.207 27.781 22.207C27.973 22.207 28.137 22.1523 28.273 21.9883C28.41 21.8516 28.492 21.6875 28.52 21.4688ZM30.598 22.207C30.598 22.7266 30.625 23.5742 30.625 24.75C30.625 25.9531 30.598 26.8008 30.57 27.3203C30.543 27.8398 30.461 28.2773 30.352 28.6602C30.188 29.125 29.914 29.5352 29.586 29.8633C29.258 30.1914 28.848 30.4375 28.41 30.6016C28.027 30.7383 27.562 30.8203 27.043 30.8477C26.523 30.875 25.676 30.875 24.5 30.875C23.297 30.875 22.449 30.875 21.93 30.8477C21.41 30.8203 20.973 30.7383 20.59 30.5742C20.125 30.4375 19.715 30.1914 19.387 29.8633C19.059 29.5352 18.812 29.125 18.648 28.6602C18.512 28.2773 18.43 27.8398 18.402 27.3203C18.375 26.8008 18.375 25.9531 18.375 24.75C18.375 23.5742 18.375 22.7266 18.402 22.207C18.43 21.6875 18.512 21.2227 18.648 20.8398C18.812 20.4023 19.059 19.9922 19.387 19.6641C19.715 19.3359 20.125 19.0625 20.59 18.8984C20.973 18.7891 21.41 18.707 21.93 18.6797C22.449 18.6523 23.297 18.625 24.5 18.625C25.676 18.625 26.523 18.6523 27.043 18.6797C27.562 18.707 28.027 18.7891 28.41 18.8984C28.848 19.0625 29.258 19.3359 29.586 19.6641C29.914 19.9922 30.188 20.4023 30.352 20.8398C30.461 21.2227 30.543 21.6875 30.598 22.207ZM29.285 28.3594C29.395 28.0586 29.449 27.5664 29.504 26.8828C29.504 26.5 29.531 25.9258 29.531 25.1875V24.3125C29.531 23.5742 29.504 23 29.504 22.6172C29.449 21.9336 29.395 21.4414 29.285 21.1406C29.066 20.5938 28.656 20.1836 28.109 19.9648C27.809 19.8555 27.316 19.8008 26.633 19.7461C26.223 19.7461 25.648 19.7188 24.938 19.7188H24.062C23.324 19.7188 22.75 19.7461 22.367 19.7461C21.684 19.8008 21.191 19.8555 20.891 19.9648C20.316 20.1836 19.934 20.5938 19.715 21.1406C19.605 21.4414 19.523 21.9336 19.496 22.6172C19.469 23.0273 19.469 23.6016 19.469 24.3125V25.1875C19.469 25.9258 19.469 26.5 19.496 26.8828C19.523 27.5664 19.605 28.0586 19.715 28.3594C19.934 28.9336 20.344 29.3164 20.891 29.5352C21.191 29.6445 21.684 29.7266 22.367 29.7539C22.75 29.7812 23.324 29.7812 24.062 29.7812H24.938C25.676 29.7812 26.25 29.7812 26.633 29.7539C27.316 29.7266 27.809 29.6445 28.109 29.5352C28.656 29.3164 29.066 28.9062 29.285 28.3594Z" fill="white"/>
</svg>
