<svg width="48" height="48" viewBox="0 0 48 48" fill="none" xmlns="http://www.w3.org/2000/svg">
<path opacity="0.1" d="M48 24C48 10.7452 37.2548 0 24 0C10.7452 0 0 10.7452 0 24C0 37.2548 10.7452 48 24 48C37.2548 48 48 37.2548 48 24Z" fill="white"/>
<path d="M30.551 21.9062C31.098 21.4961 31.59 21.0039 32 20.4023C31.453 20.6484 30.906 20.8125 30.359 20.8672C30.961 20.4844 31.398 19.9648 31.617 19.2812C31.043 19.6094 30.441 19.8555 29.785 19.9648C29.512 19.6914 29.184 19.4727 28.828 19.3086C28.473 19.1445 28.09 19.0625 27.68 19.0625C27.16 19.0625 26.695 19.1992 26.258 19.4453C25.82 19.7188 25.465 20.0742 25.219 20.5117C24.945 20.9492 24.836 21.4414 24.836 21.9336C24.836 22.1523 24.836 22.3711 24.891 22.5898C23.715 22.5352 22.621 22.2617 21.582 21.7148C20.543 21.1953 19.695 20.4844 18.984 19.582C18.711 20.0469 18.574 20.5391 18.574 21.0312C18.574 21.5234 18.684 21.9883 18.93 22.3984C19.148 22.8359 19.477 23.1641 19.859 23.4375C19.395 23.4375 18.957 23.3008 18.574 23.0547V23.1094C18.574 23.793 18.793 24.3945 19.23 24.9141C19.668 25.4609 20.215 25.7891 20.871 25.9258C20.598 25.9805 20.352 26.0078 20.105 26.0078C19.941 26.0078 19.75 26.0078 19.586 25.9805C19.75 26.5547 20.078 27.0195 20.57 27.4023C21.062 27.7852 21.609 27.9492 22.266 27.9492C21.199 28.7695 19.996 29.1797 18.684 29.1797C18.41 29.1797 18.191 29.1797 18 29.1523C19.312 30.0273 20.789 30.4375 22.402 30.4375C24.07 30.4375 25.547 30.0273 26.859 29.1523C28.035 28.3867 28.965 27.375 29.621 26.0625C30.25 24.8594 30.578 23.5742 30.578 22.2617C30.578 22.0977 30.551 21.9883 30.551 21.9062Z" fill="white"/>
</svg>
